<svg width="135" height="34" viewBox="0 0 135 34" fill="none" xmlns="http://www.w3.org/2000/svg">
<path fill-rule="evenodd" clip-rule="evenodd" d="M28.3752 4.08816C29.3797 4.93704 30.2407 5.89202 31.0299 6.91774C33.6489 10.4901 34.761 14.8406 34.187 19.2264C33.5412 23.5769 31.2452 27.3615 27.6935 29.9435C24.8952 31.9595 21.5947 33.0206 18.1147 33.0206C15.5317 33.0206 12.9845 32.4193 10.6526 31.2875L9.86332 32.8792L9.03819 32.4547C0.858541 28.2811 -2.37027 18.0239 1.86306 9.57048C2.86758 7.5544 4.26673 5.71517 5.95288 4.22964V4.19427L6.16813 3.98205L6.52689 3.6991C6.63452 3.61067 6.74214 3.53109 6.84977 3.45151C6.9574 3.37192 7.06502 3.29234 7.17265 3.20392L7.89016 2.67337L7.92604 2.74411C13.702 -1.04045 21.2718 -0.898975 27.0119 3.09781L27.263 3.23929L27.6935 3.55762C27.7533 3.60477 27.8131 3.648 27.8729 3.69123C27.9925 3.77769 28.1121 3.86415 28.2316 3.98205L28.3752 4.08816ZM25.1463 6.24572C20.4466 2.81485 14.1325 2.74411 9.50457 6.10424L8.78706 6.59942C7.31615 7.83736 6.06051 9.429 5.16362 11.1975C3.04695 15.4772 3.22633 20.5351 5.55825 24.4258L6.99327 23.4001L7.53141 24.1075C10.0427 27.3615 13.9531 29.3068 18.043 29.3068C20.7336 29.3068 23.2808 28.4933 25.4333 26.937C28.1958 24.9563 29.9537 22.0206 30.4559 18.6605C30.9582 15.265 30.0972 11.8695 28.0164 9.0753C27.4065 8.22643 26.689 7.44829 25.8639 6.77627L25.1463 6.24572ZM89.1477 16.5025C89.1477 17.0684 89.1118 17.6697 89.076 18.1649H73.7571C74.367 21.8434 76.9859 23.3643 79.9277 23.3643C82.0085 23.3643 84.1969 22.5508 85.9189 21.2067L88.1791 24.39C85.6319 26.5122 82.7977 27.2549 79.6407 27.2549C73.4342 27.2549 69.0215 22.9752 69.0215 16.5025C69.0215 10.1006 73.2548 5.75012 79.3537 5.75012C85.1296 5.78549 89.1118 10.136 89.1477 16.5025ZM73.7571 14.8048H84.5198C84.0175 11.6215 82.152 9.78228 79.246 9.78228C76.0172 9.74691 74.2235 11.7984 73.7571 14.8048ZM60.9857 26.7598H55.6044L47.2812 6.31604H52.2321L58.3668 22.1263L64.5016 6.31604H69.3089L60.9857 26.7598ZM111.427 26.7598V13.9206C111.427 9.14565 107.947 5.78552 102.924 5.78552C100.808 5.78552 98.2246 6.42218 96.5743 8.82732V6.31607H92.0898V26.7598H96.646V15.4415C96.646 11.9399 99.1215 10.0299 102.027 10.0299C105.077 10.0299 106.871 11.9399 106.871 15.3707V26.7598H111.427ZM134.997 13.9206V26.7598H130.441V15.3707C130.441 11.9399 128.647 10.0299 125.598 10.0299C122.692 10.0299 120.216 11.9399 120.216 15.4415V26.7598H115.66V6.31607H120.145V8.82732C121.795 6.42218 124.378 5.78552 126.495 5.78552C131.517 5.78552 134.997 9.14565 134.997 13.9206Z" fill="white"/>
</svg>
