<svg width="24" height="24" viewBox="0 0 24 24" fill="none" xmlns="http://www.w3.org/2000/svg">
<path d="M19.5435 20.9578C19.9344 21.3479 20.5676 21.3473 20.9578 20.9565C21.3479 20.5656 21.3473 19.9324 20.9565 19.5422L19.5435 20.9578ZM16.2049 16.2123L15.4983 15.5047V15.5047L16.2049 16.2123ZM11.0481 17.3462C7.56975 17.3462 4.75 14.5264 4.75 11.0481H2.75C2.75 15.631 6.46518 19.3462 11.0481 19.3462V17.3462ZM4.75 11.0481C4.75 7.56975 7.56975 4.75 11.0481 4.75V2.75C6.46518 2.75 2.75 6.46518 2.75 11.0481H4.75ZM11.0481 4.75C14.5264 4.75 17.3462 7.56975 17.3462 11.0481H19.3462C19.3462 6.46518 15.631 2.75 11.0481 2.75V4.75ZM17.3462 11.0481C17.3462 12.7891 16.641 14.3636 15.4983 15.5047L16.9115 16.9199C18.4145 15.419 19.3462 13.3414 19.3462 11.0481H17.3462ZM15.4983 15.5047C14.3577 16.6436 12.7859 17.3462 11.0481 17.3462V19.3462C13.3371 19.3462 15.4112 18.418 16.9115 16.9199L15.4983 15.5047ZM15.4984 16.9201L19.5435 20.9578L20.9565 19.5422L16.9113 15.5046L15.4984 16.9201Z" fill="#3E3A37"/>
</svg>
