<svg width="24" height="24" viewBox="0 0 24 24" fill="none" xmlns="http://www.w3.org/2000/svg">
<path d="M9.39898 8.27377L12 3.19409L14.601 8.27377C14.8856 8.82946 15.4229 9.21176 16.0412 9.29835L21.7937 10.104L17.6771 13.9716C17.2051 14.415 16.989 15.0667 17.1024 15.7043L18.0808 21.2022L12.8663 18.5599C12.3217 18.2839 11.6783 18.2839 11.1337 18.5599L5.91922 21.2022L6.89756 15.7043C7.01101 15.0667 6.79487 14.415 6.32292 13.9716L2.20632 10.104L7.9588 9.29835C8.57707 9.21176 9.11443 8.82946 9.39898 8.27377ZM21.9205 9.98488L21.9204 9.98499L21.9205 9.98488ZM18.11 21.3666C18.11 21.3665 18.11 21.3665 18.11 21.3665L18.11 21.3666ZM2.07952 9.98488C2.07955 9.9849 2.07958 9.98493 2.0796 9.98496L2.07952 9.98488L2.02246 10.0456L2.07952 9.98488Z" stroke="#EA7555" stroke-width="2"/>
</svg>
